<?xml version="1.0" encoding="utf-8"?>
<!-- License: PD. Made by Mary Akveo: https://maryakveo.com/ -->
<svg fill="#000000" width="800px" height="800px" viewBox="0 0 24 24" id="suit" data-name="Flat Color" xmlns="http://www.w3.org/2000/svg" class="icon flat-color"><path id="primary" d="M20,4H18.41l-1.7-1.71A1,1,0,0,0,16,2H8a1,1,0,0,0-.71.29L5.59,4H4A2,2,0,0,0,2,6V20a2,2,0,0,0,2,2H20a2,2,0,0,0,2-2V6A2,2,0,0,0,20,4Z" style="fill: rgb(0, 0, 0);"></path><path id="secondary" d="M18.41,4,16,10,12,7.29l4.68-5,0,0ZM5.59,4,8,10l4-2.71-4.68-5,0,0Z" style="fill: rgb(44, 169, 188);"></path></svg>